HIERARCHY
ROOT joint_Root
{
	OFFSET 0.0 0.0 0.0
	CHANNELS 6 Xposition Yposition Zposition Zrotation Xrotation Yrotation 
	JOINT Hips
	{
		OFFSET -0.726466 93.3139 -2.00062
		CHANNELS 6 Xposition Yposition Zposition Zrotation Xrotation Yrotation 
		JOINT Spine
		{
			OFFSET 15.7357 0.0 0.0
			CHANNELS 6 Xposition Yposition Zposition Zrotation Xrotation Yrotation 
			JOINT Chest
			{
				OFFSET 8.98455 -0.406207 0.0
				CHANNELS 6 Xposition Yposition Zposition Zrotation Xrotation Yrotation 
				JOINT Neck
				{
					OFFSET 16.3773 0.0 0.0
					CHANNELS 6 Xposition Yposition Zposition Zrotation Xrotation Yrotation 
					JOINT Head
					{
						OFFSET 6.45672 0.0 0.0
						CHANNELS 6 Xposition Yposition Zposition Zrotation Xrotation Yrotation 
						End Site
						{
							OFFSET 0.0 0.0 0.0
						}
					}
				}
				JOINT Shoulder_L
				{
					OFFSET 12.9942 -0.242716 4.98039
					CHANNELS 6 Xposition Yposition Zposition Zrotation Xrotation Yrotation 
					JOINT UpperArm_L
					{
						OFFSET 5.34809 0.0 0.0
						CHANNELS 6 Xposition Yposition Zposition Zrotation Xrotation Yrotation 
						JOINT LowerArm_L
						{
							OFFSET 24.3286 1.87007e-05 0.0
							CHANNELS 6 Xposition Yposition Zposition Zrotation Xrotation Yrotation 
							JOINT Hand_L
							{
								OFFSET 22.2916 0.0 0.0
								CHANNELS 6 Xposition Yposition Zposition Zrotation Xrotation Yrotation 
								End Site
								{
									OFFSET 0.0 0.0 0.0
								}
							}
						}
					}
				}
				JOINT Shoulder_R
				{
					OFFSET 12.9945 -0.242716 -4.98039
					CHANNELS 6 Xposition Yposition Zposition Zrotation Xrotation Yrotation 
					JOINT UpperArm_R
					{
						OFFSET -5.34813 0.0 0.0
						CHANNELS 6 Xposition Yposition Zposition Zrotation Xrotation Yrotation 
						JOINT LowerArm_R
						{
							OFFSET -24.3289 0.000322201 0.0
							CHANNELS 6 Xposition Yposition Zposition Zrotation Xrotation Yrotation 
							JOINT Hand_R
							{
								OFFSET -22.2915 -0.000108084 0.0
								CHANNELS 6 Xposition Yposition Zposition Zrotation Xrotation Yrotation 
								End Site
								{
									OFFSET 0.0 0.0 0.0
								}
							}
						}
					}
				}
			}
		}
		JOINT UpperLeg_L
		{
			OFFSET -2.19248 -6.46944 0.0
			CHANNELS 6 Xposition Yposition Zposition Zrotation Xrotation Yrotation 
			JOINT LowerLeg_L
			{
				OFFSET 39.0811 0.0 -1.23785e-05
				CHANNELS 6 Xposition Yposition Zposition Zrotation Xrotation Yrotation 
				JOINT Foot_L
				{
					OFFSET 40.9854 0.0 -1.26872e-05
					CHANNELS 6 Xposition Yposition Zposition Zrotation Xrotation Yrotation 
					JOINT Toes_L
					{
						OFFSET 11.7543 0.0 0.0
						CHANNELS 6 Xposition Yposition Zposition Zrotation Xrotation Yrotation 
						End Site
						{
							OFFSET 0.0 0.0 0.0
						}
					}
				}
			}
		}
		JOINT UpperLeg_R
		{
			OFFSET -2.19251 6.46944 0.0
			CHANNELS 6 Xposition Yposition Zposition Zrotation Xrotation Yrotation 
			JOINT LowerLeg_R
			{
				OFFSET -39.0811 -0.00228153 -0.0401928
				CHANNELS 6 Xposition Yposition Zposition Zrotation Xrotation Yrotation 
				JOINT Foot_R
				{
					OFFSET -40.9854 0.0 0.0
					CHANNELS 6 Xposition Yposition Zposition Zrotation Xrotation Yrotation 
					JOINT Toes_R
					{
						OFFSET -11.7543 0.0 0.0
						CHANNELS 6 Xposition Yposition Zposition Zrotation Xrotation Yrotation 
						End Site
						{
							OFFSET 0.0 0.0 0.0
						}
					}
				}
			}
		}
	}
}
MOTION
Frames:	4
Frame Time:	0.0333333
0.000000 0.000000 0.000000 0.000000 0.000000 -0.000000 -1.145890 93.283400 -1.253440 89.204600 -4.438790 -0.942176 15.735700 0.000005 -0.000001 78.442400 87.520000 -77.318200 8.984550 -0.406207 -0.000000 -2.895110 -1.097890 2.220790 16.377300 -0.000001 -0.000001 0.008183 0.224275 -2.534450 6.456720 -0.000001 -0.000000 2.499330 0.039169 -3.223000 12.994200 -0.242716 4.980390 -83.968800 -11.575500 -62.231400 5.348090 -0.000007 -0.000001 -78.724000 -60.758700 -120.325000 24.328600 0.000019 0.000005 1.257800 1.363000 -42.748600 22.291600 -0.000001 0.000005 19.116300 5.624060 -12.892900 12.994500 -0.242716 -4.980390 88.526400 4.453280 -71.669900 -5.348130 -0.000001 -0.000004 -68.030200 30.583600 -6.545800 -24.328900 0.000322 -0.000009 3.953030 10.059100 -21.590700 -22.291500 -0.000108 -0.000004 10.445400 5.372050 -2.050100 -2.192480 -6.469440 -0.000000 -177.242000 -10.927800 -3.525610 39.081100 -0.000007 -0.000012 -0.048061 0.198533 13.608400 40.985400 -0.000006 -0.000013 -0.680336 3.013250 -61.041400 11.754300 -0.000000 0.000003 -0.000000 -0.000001 -16.577500 -2.192510 6.469440 -0.000001 -179.895000 10.828900 177.989000 -39.081100 -0.002282 -0.040193 -0.006842 0.048809 11.778700 -40.985400 0.000008 0.000006 3.893080 7.221200 -61.486700 -11.754300 -0.000006 -0.000006 -0.006875 -0.078588 -19.772300
0.000000 0.000000 0.000000 0.000000 0.000000 -0.000000 -1.169140 93.290000 -1.246630 89.207500 -4.569420 -0.939974 15.735700 0.000005 -0.000001 79.204900 87.519000 -77.979400 8.984550 -0.406207 -0.000000 -2.879640 -1.042830 2.425050 16.377300 -0.000001 -0.000001 0.106924 0.240459 -2.442240 6.456720 -0.000001 -0.000000 2.577400 0.074226 -3.251390 12.994200 -0.242716 4.980390 -84.025500 -11.458400 -62.218900 5.348090 -0.000007 -0.000001 -80.556200 -60.985200 -120.392000 24.328600 0.000019 0.000005 2.256360 3.236050 -34.946600 22.291600 -0.000001 0.000005 18.313200 5.583380 -10.390600 12.994500 -0.242716 -4.980390 88.514100 4.469310 -71.587900 -5.348130 -0.000001 -0.000004 -68.119300 30.430700 -6.381140 -24.328900 0.000322 -0.000009 3.998920 9.819950 -22.293700 -22.291500 -0.000108 -0.000004 10.392300 5.372700 -2.070310 -2.192480 -6.469440 -0.000000 -177.226000 -11.077400 -3.445690 39.081100 -0.000007 -0.000012 -0.048092 0.200336 13.498800 40.985400 -0.000006 -0.000013 -0.706993 2.988590 -60.998200 11.754300 -0.000000 0.000003 -0.000000 -0.000007 -16.577700 -2.192510 6.469440 -0.000001 -179.894000 10.788200 178.030000 -39.081100 -0.002282 -0.040193 -0.006517 0.047563 11.703800 -40.985400 0.000008 0.000006 3.945950 7.343930 -61.464200 -11.754300 -0.000006 -0.000006 -0.006709 -0.077148 -19.713500
0.000000 0.000000 0.000000 0.000000 0.000000 -0.000000 -1.200050 93.293300 -1.244630 89.198700 -4.675370 -1.012960 15.735700 0.000005 -0.000001 79.449100 87.521300 -78.107600 8.984550 -0.406207 -0.000000 -2.879100 -1.031960 2.657410 16.377300 -0.000001 -0.000001 0.138152 0.231668 -2.339670 6.456720 -0.000001 -0.000000 2.721510 0.091896 -3.256090 12.994200 -0.242716 4.980390 -84.140900 -11.244600 -62.244100 5.348090 -0.000007 -0.000001 -82.654900 -61.473900 -120.407000 24.328600 0.000019 0.000005 3.333990 6.353090 -27.783600 22.291600 -0.000001 0.000005 17.939200 5.511420 -7.000580 12.994500 -0.242716 -4.980390 88.536300 4.409990 -71.618400 -5.348130 -0.000001 -0.000004 -68.214600 30.557200 -6.309420 -24.328900 0.000322 -0.000009 3.985120 9.606350 -22.664300 -22.291500 -0.000108 -0.000004 10.296100 5.375450 -2.156070 -2.192480 -6.469440 -0.000000 -177.225000 -11.083400 -3.485940 39.081100 -0.000007 -0.000012 -0.046808 0.195622 13.456500 40.985400 -0.000006 -0.000013 -0.730436 2.904410 -60.984200 11.754300 -0.000000 0.000003 -0.000000 -0.000005 -16.577700 -2.192510 6.469440 -0.000001 -179.867000 10.777800 177.974000 -39.081100 -0.002282 -0.040193 -0.006593 0.048137 11.654700 -40.985400 0.000008 0.000006 3.959350 7.461180 -61.440100 -11.754300 -0.000006 -0.000006 -0.006955 -0.079279 -19.800500
0.000000 0.000000 0.000000 0.000000 0.000000 -0.000000 -1.202870 93.301800 -1.268390 89.194600 -4.861230 -1.106570 15.735700 0.000005 -0.000001 80.248300 87.524100 -78.790600 8.984550 -0.406207 -0.000000 -2.871920 -0.973654 2.891320 16.377300 -0.000001 -0.000001 0.210609 0.203874 -2.251950 6.456720 -0.000001 -0.000000 2.685480 0.082361 -3.320020 12.994200 -0.242716 4.980390 -84.327600 -10.842300 -62.164300 5.348090 -0.000007 -0.000001 -85.741300 -61.528400 -121.581000 24.328600 0.000019 0.000005 3.950320 10.561500 -20.660600 22.291600 -0.000001 0.000005 17.899700 5.417830 -3.530290 12.994500 -0.242716 -4.980390 88.531500 4.409630 -71.560700 -5.348130 -0.000001 -0.000004 -68.138200 30.897300 -6.402590 -24.328900 0.000322 -0.000009 4.016860 9.644360 -22.746800 -22.291500 -0.000108 -0.000004 10.070400 5.376670 -2.194080 -2.192480 -6.469440 -0.000000 -177.246000 -11.000000 -3.525330 39.081100 -0.000007 -0.000012 -0.046927 0.197671 13.354600 40.985400 -0.000006 -0.000013 -0.774149 2.635170 -60.933500 11.754300 -0.000000 0.000003 -0.000000 -0.000006 -16.577700 -2.192510 6.469440 -0.000001 -179.832000 10.549500 177.892000 -39.081100 -0.002282 -0.040193 -0.006428 0.047711 11.566200 -40.985400 0.000008 0.000006 3.929680 7.435940 -61.359900 -11.754300 -0.000006 -0.000006 -0.006822 -0.078129 -19.753500
